<svg id="Capa_1" data-name="Capa 1" xmlns="http://www.w3.org/2000/svg" viewBox="0 0 4285.98 884.41"><defs><style>.cls-1{fill:#d5dadb;}.cls-2{fill:#007960;}.cls-3{fill:#00947e;}.cls-4{fill:#57af9c;}.cls-5{fill:#c1c7cd;}.cls-6{fill:#88939e;}.cls-7{fill:#aeb6bd;}.cls-8{fill:#cb6865;}.cls-9{fill:#c15251;}.cls-10{fill:#b6393f;}</style></defs><polygon class="cls-1" points="1606.4 708.45 1599.4 708.45 1600.4 174.63 1605.4 174.63 1606.4 708.45"/><path class="cls-1" d="M1772.35,390.22q5.06-9.75,10.1-20c3.34-6.85,6.74-13.62,10.09-20.37q12.2-24.79,19.42-40.39c2.8.3,6.06.47,9.84.51a60.15,60.15,0,0,0,9.27-.51q7.8,16.81,19.66,40.39,9.18,18.57,20.29,40.39h-13.39c-1.52-4.1-4.36-10.43-8.44-19q-4.53-10.1-11.14-23.71t-17.19-32.82h.56q-.89,1.32-19.88,40.72-4.05,8.78-8.18,17.54t-8.06,17.24Zm23.26-26.89q12.2.24,26.13.23t26-.23l2.11,7.37q-13-.12-28.43-.12c-10.32,0-19.82,0-28.44.12Z"/><path class="cls-1" d="M1885.85,390.23q.54-18.11.53-40.89t-.53-39.9c4.83.15,10.74.31,17.77.44s14.35.23,22,.23q12.18,0,23.09-.12c7.29-.05,13.64-.17,19-.32-.06,1.68-.1,3.36-.1,5.05s0,3.36.1,5c-4.75-.36-10-.71-15.74-1.05s-11.8-.59-18.15-.8-12.52-.4-18.62-.5-11.92-.13-17.39-.05q-.12,7.35-.17,14.59c0,4.82-.06,9.7-.06,14.59q15.36.22,31.94,0t30.29-.73a45,45,0,0,0,0,8.68q-13.82-.34-30.4-.55c-11-.16-21.67-.19-31.83-.12q0,18.35.34,28.44,8.55,0,17.78-.12t18.31-.43c6.16-.21,12.09-.5,17.85-.82s11-.63,15.85-.94c-.06,1.68-.1,3.4-.1,5.15s0,3.49.1,5.17Z"/><path class="cls-1" d="M1986.6,390.23q.54-17.57.55-40.39t-.55-40.4h27.88c3.07-.05,6.18-.11,9.33-.15s6.37-.06,9.65-.06q20.63,0,30.74,5.71t10.09,17.89q0,10-6.43,15.25A32.54,32.54,0,0,1,2053,355a98.92,98.92,0,0,1-18.27,1.58v.88c10.09,1.26,18.67,4.61,25.69,10.11s12.78,13,17.22,22.71H2062q-3.41-11.1-9.23-17.77a34.91,34.91,0,0,0-14.71-9.94q-8.89-3.25-21.85-3.57c-3.65-.15-7-.22-9.86-.22h-8c.09,8.63.15,14.28.24,16.91s.12,5,.21,7.4.14,4.77.21,7.19Zm11.63-39.08,7.36.23c3.65.08,7.19.12,10.57.16s6.54,0,9.4,0a112.67,112.67,0,0,0,20.58-1.52q7.83-1.54,12-5.38t4.08-10.87c0-5.86-2.42-10.07-7.33-12.63s-12.16-3.83-21.74-3.83h-10.75c-3.59,0-7.1,0-10.53.09h-13.39q-.12,8.25-.17,16.64c-.06,5.58-.06,11.29-.06,17.06"/><path class="cls-1" d="M2143.45,391.54q-16.71,0-28.67-4.94t-18.38-14.32q-6.42-9.39-6.43-22.43c0-8.87,2.15-16.42,6.37-22.68s10.36-11,18.33-14.26,17.56-4.88,28.78-4.88,20.65,1.64,28.64,4.94,14.06,8.06,18.25,14.32,6.33,13.77,6.33,22.56-2.09,16.17-6.33,22.43-10.3,11-18.25,14.32-17.53,4.94-28.64,4.94m0-7.9q12.93,0,22.25-3.89a31.2,31.2,0,0,0,14.4-11.42c3.36-5,5.06-11.1,5.06-18.27a32.72,32.72,0,0,0-5.06-18.27,32.13,32.13,0,0,0-14.44-11.86c-6.25-2.75-13.67-4.12-22.21-4.12q-13.08,0-22.41,4.12a32,32,0,0,0-14.33,11.8q-5,7.66-5,18.33t5,18.27A31.06,31.06,0,0,0,2121,379.75q9.32,3.9,22.41,3.89"/><path class="cls-1" d="M2215.86,390.23q.57-16.68.55-39.79t-.55-41h28.21c3.09-.06,6.19-.11,9.34-.15s6.37-.06,9.67-.06c8.54,0,15.64,1,21.23,3s9.82,5,12.62,9.06,4.24,9.17,4.24,15.31a26.75,26.75,0,0,1-3.91,14.59c-2.6,4.12-6.66,7.27-12.19,9.5s-12.51,3.35-21,3.35h-38.41v-7.57h4.56c1.49,0,3,0,4.42.1,4.49,0,8.91,0,13.36.06s8.88.05,13.44.05q13.82,0,21-4.94t7.13-14.49a18.32,18.32,0,0,0-3.24-11.14,18.93,18.93,0,0,0-9.55-6.58,49.11,49.11,0,0,0-15.62-2.13h-8.24c-2.79,0-5.57,0-8.36.11h-17q-.19,18.54,0,37.74t.95,35Z"/><path class="cls-1" d="M2412.89,349.18q0,13.4-5.72,23a37.16,37.16,0,0,1-16.41,14.71q-10.7,5.08-25.51,5.11t-25.52-5.11a36.48,36.48,0,0,1-16.29-14.71c-3.76-6.41-5.61-14.07-5.61-23q0-11.42-.11-21.34t-.34-18.39a44.84,44.84,0,0,0,6.25.42,37.69,37.69,0,0,0,5.93-.42q-.2,8.44-.32,18.39t-.12,21.57c0,7.25,1.43,13.44,4.24,18.59a28.27,28.27,0,0,0,12.36,11.87c5.41,2.72,11.92,4.1,19.53,4.1s14.22-1.38,19.64-4.1A28.48,28.48,0,0,0,2397.25,368q4.2-7.72,4.21-18.59,0-12-.05-21.8c0-6.54-.12-12.61-.27-18.16a42.54,42.54,0,0,0,6.2.42,38.21,38.21,0,0,0,6-.42q-.21,8.32-.33,18.43t-.09,21.3"/><path class="cls-1" d="M2433.3,390.23q.54-18.11.54-40.89t-.54-39.9c4.83.15,10.74.31,17.78.44s14.34.23,22,.23c8.12,0,15.81,0,23.11-.12s13.62-.17,19-.32c-.08,1.68-.12,3.36-.12,5.05s0,3.36.12,5c-4.77-.36-10-.71-15.76-1.05s-11.78-.59-18.15-.8-12.52-.4-18.62-.5-11.9-.13-17.39-.05q-.12,7.35-.17,14.59c0,4.82-.06,9.7-.06,14.59q15.36.22,31.94,0t30.31-.73a41.06,41.06,0,0,0,0,8.68q-13.84-.34-30.42-.55t-31.83-.12c0,12.23.13,21.71.34,28.44q8.57,0,17.78-.12t18.33-.43c6.16-.21,12.09-.5,17.85-.82s11-.63,15.85-.94c-.08,1.68-.12,3.4-.12,5.15s0,3.49.12,5.17Z"/><path class="cls-1" d="M2534.05,390.23q.54-17.57.55-40.39t-.55-40.4h27.88c3.07-.05,6.18-.11,9.33-.15s6.37-.06,9.66-.06c13.76,0,24,1.89,30.73,5.71s10.09,9.76,10.09,17.89q0,10-6.41,15.25a32.64,32.64,0,0,1-14.82,6.87,99.31,99.31,0,0,1-18.27,1.58v.88c10.09,1.26,18.67,4.61,25.69,10.11s12.76,13,17.22,22.71h-15.69c-2.25-7.4-5.36-13.31-9.23-17.77a34.85,34.85,0,0,0-14.69-9.94q-8.92-3.25-21.86-3.57c-3.66-.15-7-.22-9.87-.22h-8c.08,8.63.16,14.28.23,16.91s.14,5,.21,7.4.14,4.77.23,7.19Zm11.63-39.08,7.36.23c3.66.08,7.19.12,10.59.16s6.52,0,9.4,0a112.58,112.58,0,0,0,20.56-1.52c5.22-1,9.23-2.83,12-5.38s4.1-6.2,4.1-10.87q0-8.79-7.35-12.63c-4.92-2.55-12.15-3.83-21.74-3.83h-10.74c-3.6,0-7.09,0-10.54.09h-13.39q-.12,8.25-.17,16.64c0,5.58-.06,11.29-.06,17.06"/><path class="cls-1" d="M2675,390.23q.47-15.8.5-35.17t-.15-37.59c-7.79.06-15.09.23-22,.48s-13.7.61-20.37,1.05a35.86,35.86,0,0,0,0-9.56q25.57.35,48.35.34t48.34-.34c-.15,1.62-.23,3.2-.23,4.79s.08,3.16.23,4.77q-10-.66-20.4-1.05t-22.3-.48q-.19,18.19,0,37.63c.1,12.95.33,24.68.59,35.13Z"/><path class="cls-1" d="M2789.23,391.54q-16.68,0-28.64-4.94t-18.39-14.32q-6.4-9.39-6.42-22.43,0-13.31,6.37-22.68t18.32-14.26q12-4.89,28.76-4.88t28.65,4.94q12,4.92,18.27,14.32t6.31,22.56q0,13-6.31,22.43t-18.27,14.32q-12,4.95-28.65,4.94m0-7.9q13,0,22.28-3.89a31.2,31.2,0,0,0,14.38-11.42c3.38-5,5.05-11.1,5.05-18.27a32.55,32.55,0,0,0-5.05-18.27,32,32,0,0,0-14.44-11.86q-9.37-4.12-22.22-4.12c-8.71,0-16.19,1.37-22.39,4.12a32.1,32.1,0,0,0-14.34,11.8q-5,7.66-5,18.33t5,18.27a31.13,31.13,0,0,0,14.34,11.42c6.2,2.6,13.68,3.89,22.39,3.89"/><path class="cls-1" d="M2898.11,390.23q.57-17.57.54-40.4t-.54-40.39a45.53,45.53,0,0,0,6.35.44,37,37,0,0,0,5.95-.44q-.45,17.69-.4,40.51t.61,40.28Z"/><path class="cls-1" d="M2934.75,390.23c.32-13.47.44-26.93.44-40.4s-.12-26.91-.44-40.39c2.5.23,5.32.36,8.5.4a56.35,56.35,0,0,0,8.19-.4q11.52,13,23.4,25.8t23.89,25.68c3.84,4.1,7.69,8.21,11.6,12.3L3022,385.5l-3.51.78q.19-15.36,0-38.52,0-9.45-.17-19.11c-.12-6.43-.23-12.84-.38-19.21a42.12,42.12,0,0,0,6.1.44,34.1,34.1,0,0,0,5.65-.44q-.12,10.13-.18,20.2t-.05,20.19q0,24.06.55,40.4h-16.46q-8.58-9.53-17.34-19c-5.85-6.29-11.69-12.53-17.45-18.74q-17.7-18.92-35.68-37.33l3.17-.78q-.18,18.76-.1,37.82t.55,38Z"/><path class="cls-1" d="M3087.1,390.23q.45-15.8.49-35.17t-.15-37.59c-7.76.06-15.08.23-22,.48s-13.69.61-20.37,1.05a34.78,34.78,0,0,0,0-9.56q25.58.35,48.37.34t48.33-.34c-.16,1.62-.23,3.2-.23,4.79s.07,3.16.23,4.77q-10-.66-20.41-1.05c-6.94-.25-14.38-.42-22.28-.48q-.22,18.19-.05,37.63c.11,12.95.32,24.68.59,35.13Z"/><path class="cls-1" d="M3156.79,390.23q.57-18.11.55-40.89t-.55-39.9c4.85.15,10.76.31,17.79.44s14.35.23,22,.23c8.12,0,15.81,0,23.11-.12s13.62-.17,19-.32c-.07,1.68-.11,3.36-.11,5.05s0,3.36.11,5q-7.14-.54-15.75-1.05c-5.76-.32-11.79-.59-18.16-.8s-12.51-.4-18.61-.5-11.9-.13-17.39-.05q-.12,7.35-.17,14.59c0,4.82-.06,9.7-.06,14.59q15.36.22,31.94,0t30.29-.73c-.13,1.39-.23,2.84-.23,4.33s.1,3,.23,4.35q-13.82-.34-30.4-.55c-11-.16-21.67-.19-31.83-.12q0,18.35.34,28.44,8.55,0,17.76-.12c6.16-.07,12.26-.21,18.34-.43s12.1-.5,17.84-.82,11-.63,15.86-.94c-.07,1.68-.11,3.4-.11,5.15s0,3.49.11,5.17Z"/><path class="cls-1" d="M3257.56,390.23q.54-17.57.53-40.39t-.53-40.4h27.88c3.07-.05,6.18-.11,9.33-.15s6.37-.06,9.65-.06q20.63,0,30.74,5.71t10.09,17.89q0,10-6.43,15.25A32.57,32.57,0,0,1,3324,355a99.38,99.38,0,0,1-18.29,1.58v.88c10.11,1.26,18.67,4.61,25.69,10.11s12.78,13,17.24,22.71H3333q-3.41-11.1-9.23-17.77a35,35,0,0,0-14.71-9.94q-8.9-3.25-21.85-3.57c-3.65-.15-6.95-.22-9.86-.22h-8c.06,8.63.16,14.28.22,16.91s.15,5,.2,7.4.16,4.77.23,7.19Zm11.63-39.08,7.34.23c3.67.08,7.21.12,10.61.16s6.52,0,9.4,0a112.58,112.58,0,0,0,20.56-1.52q7.83-1.54,12-5.38c2.72-2.58,4.1-6.2,4.1-10.87q0-8.79-7.35-12.63c-4.92-2.55-12.15-3.83-21.74-3.83h-10.75c-3.59,0-7.1,0-10.53.09h-13.39q-.12,8.25-.17,16.64c0,5.58-.06,11.29-.06,17.06"/><path class="cls-1" d="M3366.65,390.23q.43-20.21.42-40.4t-.42-40.39q3.72.35,8.51.4a56.59,56.59,0,0,0,8.18-.4q11.51,13,23.38,25.8t23.92,25.68q5.71,6.15,11.57,12.3l11.69,12.28-3.5.78q.2-15.36,0-38.52,0-9.45-.16-19.11c-.13-6.43-.24-12.84-.42-19.21a42.82,42.82,0,0,0,6.13.44,34.22,34.22,0,0,0,5.66-.44c-.1,6.75-.15,13.48-.19,20.2s0,13.46,0,20.19q0,24.06.54,40.4h-16.46q-8.57-9.53-17.34-19c-5.85-6.29-11.69-12.53-17.45-18.74Q3393,333.58,3375,315.16l3.18-.78q-.2,18.76-.11,37.82t.55,38Z"/><path class="cls-1" d="M3478.15,390.22q5.07-9.75,10.13-20c3.34-6.85,6.69-13.62,10.07-20.37q12.21-24.79,19.43-40.39c2.79.3,6.07.47,9.82.51a60,60,0,0,0,9.27-.51q7.82,16.81,19.67,40.39,9.21,18.57,20.29,40.39h-13.39q-2.31-6.15-8.45-19-4.51-10.1-11.14-23.71t-17.18-32.82h.55q-.88,1.32-19.85,40.72-4.1,8.78-8.2,17.54t-8.05,17.24Zm23.27-26.89q12.21.24,26.13.23t26-.23l2.1,7.37q-13-.12-28.44-.12t-28.43.12Z"/><path class="cls-1" d="M3638.29,391.76q-17.34,0-29.75-5.05t-18.88-14.59c-4.29-6.37-6.47-13.9-6.47-22.62s2.25-16.4,6.81-22.65,11-11,19.36-14.21,18.31-4.83,29.81-4.83a113.27,113.27,0,0,1,21.19,2,118.87,118.87,0,0,1,22.83,7.08,44.92,44.92,0,0,0,0,10.87,100.31,100.31,0,0,0-22.83-9,86.59,86.59,0,0,0-20.64-2.63Q3626,316,3615.9,320t-15.52,11.46a30,30,0,0,0-5.44,18.06,31.89,31.89,0,0,0,5.09,18q5.13,7.68,15.09,11.79t24.28,4.12a73.76,73.76,0,0,0,23.13-3.57,60.29,60.29,0,0,0,20.87-12.34,29.43,29.43,0,0,0,0,5.31c.15,1.73.38,3.49.65,5.34A65.35,65.35,0,0,1,3664,388.43c-7.25,2.21-15.79,3.33-25.69,3.33"/><path class="cls-1" d="M3704.91,390.23q.57-17.57.55-40.4t-.55-40.39a45.5,45.5,0,0,0,6.37.44,36.94,36.94,0,0,0,5.93-.44q-.42,17.69-.38,40.51t.59,40.28Z"/><path class="cls-1" d="M3791.29,391.54q-16.68,0-28.66-4.94t-18.37-14.32c-4.27-6.26-6.43-13.73-6.43-22.43,0-8.87,2.14-16.42,6.37-22.68s10.36-11,18.33-14.26,17.57-4.88,28.76-4.88,20.68,1.64,28.65,4.94,14,8.06,18.27,14.32,6.31,13.77,6.31,22.56-2.1,16.17-6.31,22.43-10.3,11-18.27,14.32-17.53,4.94-28.65,4.94m0-7.9q12.93,0,22.28-3.89A31.3,31.3,0,0,0,3828,368.33q5.06-7.53,5.05-18.27a32.63,32.63,0,0,0-5.05-18.27,32.08,32.08,0,0,0-14.44-11.86q-9.39-4.12-22.22-4.12-13.07,0-22.39,4.12a31.83,31.83,0,0,0-14.32,11.8,32.78,32.78,0,0,0-5,18.33q0,10.76,5,18.27a30.88,30.88,0,0,0,14.32,11.42q9.33,3.9,22.39,3.89"/><path class="cls-1" d="M3863.72,390.23c.31-13.47.42-26.93.42-40.4s-.11-26.91-.42-40.39c2.5.23,5.32.36,8.51.4a56.44,56.44,0,0,0,8.18-.4q11.53,13,23.38,25.8t23.92,25.68q5.72,6.15,11.58,12.3T3951,385.5l-3.51.78q.2-15.36,0-38.52c0-6.3,0-12.67-.16-19.11s-.24-12.84-.4-19.21a42.35,42.35,0,0,0,6.11.44,34,34,0,0,0,5.66-.44q-.12,10.13-.17,20.2t-.06,20.19q0,24.06.55,40.4h-16.45q-8.6-9.53-17.36-19l-17.45-18.74q-17.68-18.92-35.68-37.33l3.18-.78q-.19,18.76-.09,37.82t.55,38Z"/><path class="cls-1" d="M3975.13,390.22c3.38-6.5,6.73-13.17,10.11-20s6.71-13.62,10.09-20.37q12.18-24.79,19.41-40.39c2.81.3,6.07.47,9.84.51a60.15,60.15,0,0,0,9.27-.51q7.82,16.81,19.66,40.39,9.19,18.57,20.3,40.39h-13.39c-1.53-4.1-4.37-10.43-8.45-19q-4.51-10.1-11.14-23.71t-17.18-32.82h.55q-.88,1.32-19.87,40.72-4.07,8.78-8.18,17.54l-8.07,17.24Zm23.27-26.89q12.18.24,26.13.23c9.28,0,18-.07,26-.23l2.12,7.37q-13-.12-28.44-.12t-28.43.12Z"/><path class="cls-1" d="M4088.62,390.23q.45-20.21.42-40.4t-.42-40.39a48.11,48.11,0,0,0,6.54.44,34.86,34.86,0,0,0,5.85-.44q-.54,19.55-.66,35.57-.09,20.08,0,37.21,16.15,0,35.74-.61t33.52-1.59c-.07,2-.11,3.76-.11,5.33s0,3.2.11,4.88Z"/><path class="cls-1" d="M1782.6,576.84q1.34-21.23,1.35-56.44T1782.6,464q8.93.75,31.73,1.28t46.73.3q23.94-.23,37.13-1.27c-.33,3.83-.48,7.65-.48,11.42s.15,7.61.48,11.44q-15.45-2.85-41.22-4.61t-47-1.45q-.29,8.64-.38,17.49t.09,18.27q18.78.31,39.85-.38t37.55-1.74c-.29,3-.46,6.2-.46,9.56s.17,6.5.46,9.53c-11.2-.61-23.82-1.1-37.78-1.5s-27.2-.46-39.62-.18q0,27.9,2.41,44.71Z"/><path class="cls-1" d="M1918.18,576.84q1.35-21.51,1.36-56.66T1918.18,464q7.13.6,23.17,1t34.1.46q20.46.16,37.5-.15t26.72-.92c-.31,3.76-.44,7.53-.44,11.37s.13,7.63.44,11.36c-5.13-1-11.5-1.9-19.07-2.72s-16-1.51-25.14-2.12q-13.5-.63-26.53-1c-8.7-.25-16.46-.38-23.34-.38-.19,5.45-.33,10.87-.36,16.21s0,10.72.07,16.07q20.31.3,43.87-.38t39.76-1.75c-.3,3-.48,6.22-.48,9.55s.18,6.51.48,9.54q-16.53-1.06-40.07-1.66t-43.56,0q0,18.94.59,31.2c7.38.1,15.41,0,24.09-.23s17.28-.68,25.77-1.28q13-.76,24.54-2c7.69-.8,14.13-1.66,19.38-2.55-.31,3.71-.44,7.59-.44,11.57s.13,7.86.44,11.6Z"/><path class="cls-1" d="M2064.68,576.84q.89-28.32.9-56.51t-.9-56.36a117.51,117.51,0,0,0,14.92,1.15,69.47,69.47,0,0,0,13.56-1.15q-1.07,19.08-1.36,45.6-.32,29.23.29,50.29,19.85,0,48.86-1.66t43.27-4.08q-.48,6.81-.47,12c0,3.43.15,7,.47,10.76Z"/><path class="cls-1" d="M2207.7,576.84q1.35-21.23,1.36-56.44T2207.7,464a116,116,0,0,0,14.61,1.15,76.91,76.91,0,0,0,13.87-1.15q-1.38,21.48-1.28,56.82t1.58,56.05Z"/><path class="cls-1" d="M2266.16,576.84q1.38-20.91,1.38-56.21T2266.16,464c7.5.1,14.4.14,20.77.14s12.53-.1,18.5-.29c4.1-.21,8.34-.31,12.63-.31h13.42q21.21,0,34.39,3.78t19.62,12.21q6.42,8.4,6.43,22.35,0,12.42-5.61,21.21t-18.4,13.71q-12.81,4.92-33.85,4.92h-43.79V525.63c1.6,0,3.19,0,4.69.08s3,.11,4.54.23q7,.13,13.88.22c4.58,0,9.2.08,13.85.08,13.05,0,22.68-1.93,28.95-5.76s9.38-9.55,9.38-17.13q0-8.18-4.32-13.17c-2.87-3.34-7.18-5.76-12.86-7.27s-13.08-2.27-22.06-2.27c-2.54,0-5.17,0-8,.06s-5.62.07-8.56.07-5.84.19-8.7.23-5.68.08-8.41.08q-.63,25.14-.07,52.05t2.34,43.71Z"/><path class="cls-1" d="M2413.75,576.84q1.34-21.51,1.35-56.66T2413.75,464q7.11.6,23.17,1t34.1.46q20.45.16,37.47-.15t26.74-.92c-.3,3.76-.44,7.53-.44,11.37s.14,7.63.44,11.36c-5.13-1-11.5-1.9-19.09-2.72s-15.94-1.51-25.14-2.12q-13.5-.63-26.51-1c-8.69-.25-16.45-.38-23.34-.38-.19,5.45-.32,10.87-.36,16.21s0,10.72.08,16.07q20.28.3,43.84-.38t39.78-1.75c-.3,3-.47,6.22-.47,9.55s.17,6.51.47,9.54q-16.53-1.06-40.08-1.66t-43.54,0q0,18.94.59,31.2c7.38.1,15.41,0,24.08-.23s17.28-.68,25.75-1.28q13-.76,24.56-2t19.38-2.55c-.3,3.71-.44,7.59-.44,11.57s.14,7.86.44,11.6Z"/><path class="cls-1" d="M2597.81,576.85c4.33-8.91,8.8-18.18,13.34-27.81s8.92-19.23,13.15-28.72q14.43-31.5,24.72-56.36a219.13,219.13,0,0,0,22.18,1.22q13.11.15,20.68-1.22,11.7,27.9,25,56.36,10.76,23.79,26.53,56.53h-31q-4.26-12.92-12.28-32.29-7.62-18.91-15.6-36.89c-5.38-11.95-10.42-22.2-15.17-30.66h1.05q-3.32,5.75-22.86,51-5.13,12.59-10.23,25c-3.39,8.3-6.65,16.21-9.78,23.81Zm42.72-39.41q13.48.46,30.06.46t30.23-.46l5,15.76q-15.8-.47-36-.46t-36,.46Zm19.1-86.51q5.28-5,17-19.39a31,31,0,0,0,5.61-5.15,181.23,181.23,0,0,0,33.16,0q-4.7,2.89-9.61,6.14c-3.3,2.17-6.6,4.31-9.94,6.45-8.58,5.74-14.47,9.74-17.71,11.95-1.51-.09-4.6-.15-9.25-.15s-7.73.06-9.23.15"/><path class="cls-1" d="M2761.58,576.84q.91-28.32.91-56.51t-.91-56.36a184.09,184.09,0,0,0,19.17,1,123.76,123.76,0,0,0,18.4-1q12.9,17.43,26.3,34.69t27.35,34.39q6.81,8.33,13.63,16.52c4.52,5.45,9.1,10.9,13.62,16.36l-8,2q.78-24.09.31-52.12,0-12.56-.38-25.67T2871,464a107.16,107.16,0,0,0,14,1.15,65.9,65.9,0,0,0,13-1.15q-.32,14.08-.46,28.17t-.15,28.34q0,29.84,1.07,56.36h-36.68q-9.84-13.05-19.83-25.69c-6.7-8.43-13.39-16.78-20.16-25.06q-20.31-25.16-41.8-49.86l7.7-2q-.57,25.29-.29,51t1.51,51.59Z"/><path class="cls-1" d="M2998.69,579q-24.69,0-42-7.19t-26.3-20.54q-9-13.34-8.94-31.51,0-18.8,9.48-31.88t27.35-19.78q17.88-6.66,42.56-6.68a225.41,225.41,0,0,1,34.54,2.88,152.17,152.17,0,0,1,35,9.85,104.72,104.72,0,0,0-.92,13.27,59.26,59.26,0,0,0,.92,11,124.9,124.9,0,0,0-32.9-13.76,139.78,139.78,0,0,0-36.35-4.87q-16.65,0-28.63,4.87t-18.34,13.84a36.05,36.05,0,0,0-6.35,21.3,37.43,37.43,0,0,0,23.62,36q11.53,5.1,27.28,5.08a76.38,76.38,0,0,0,30.15-6q14.07-6,21.51-20.39h-12.2c-4.1,0-8.09.09-12.06.3-8,.21-15.33.52-22.1.92s-12.38.86-16.82,1.35a52,52,0,0,0,.61-10.29,81.35,81.35,0,0,0-1.07-11.37q20.77.91,43.12.91t42-.91a107.61,107.61,0,0,0-.76,13.48,135.75,135.75,0,0,0,.76,14.55q-8.18,17.28-28.18,26.44t-45,9.17"/><path class="cls-1" d="M3096,576.84q1.37-21.51,1.35-56.66T3096,464q7.11.6,23.19,1t34.08.46q20.45.16,37.51-.15t26.72-.92c-.31,3.76-.44,7.53-.44,11.37s.13,7.63.44,11.36c-5.13-1-11.5-1.9-19.07-2.72s-16-1.51-25.16-2.12q-13.5-.63-26.53-1t-23.34-.38c-.17,5.45-.3,10.87-.36,16.21s0,10.72.07,16.07q20.33.3,43.87-.38t39.78-1.75a97.16,97.16,0,0,0,0,19.09q-16.53-1.06-40.09-1.66t-43.56,0q0,18.94.61,31.2c7.39.1,15.41,0,24.09-.23s17.28-.68,25.75-1.28q13-.76,24.54-2t19.4-2.55c-.31,3.71-.44,7.59-.44,11.57s.13,7.86.44,11.6Z"/><path class="cls-1" d="M3242.44,576.84q.92-28.32.92-56.51t-.92-56.36a117.79,117.79,0,0,0,14.92,1.15,69.68,69.68,0,0,0,13.58-1.15q-1.09,19.08-1.36,45.6-.32,29.23.29,50.29,19.86,0,48.86-1.66t43.27-4.08q-.48,6.81-.47,12c0,3.43.15,7,.47,10.76Z"/><path class="cls-1" d="M3384.87,576.84q1.37-21.51,1.35-56.66T3384.87,464c4.73.4,12.47.76,23.17,1s22.06.46,34.08.46q20.46.16,37.51-.15t26.74-.92c-.3,3.76-.46,7.53-.46,11.37s.16,7.63.46,11.36c-5.15-1-11.5-1.9-19.09-2.72s-16-1.51-25.15-2.12q-13.49-.63-26.51-1t-23.35-.38c-.19,5.45-.3,10.87-.38,16.21s0,10.72.1,16.07q20.28.3,43.86-.38t39.77-1.75a99.26,99.26,0,0,0,0,19.09q-16.54-1.06-40.07-1.66t-43.56,0q0,18.94.61,31.2c7.36.1,15.39,0,24.08-.23s17.26-.68,25.75-1.28q13-.76,24.55-2c7.66-.8,14.15-1.66,19.39-2.55-.3,3.71-.46,7.59-.46,11.57s.16,7.86.46,11.6Z"/><path class="cls-1" d="M3600.91,578.5a198.56,198.56,0,0,1-37.95-3.56,219.37,219.37,0,0,1-34-9.31,91,91,0,0,0,.9-12.74,87.63,87.63,0,0,0-.9-12.57q10.31,9.7,31.19,14.94a178.16,178.16,0,0,0,43.19,5.22q16.65,0,24.3-3.72c5.11-2.48,7.67-6.23,7.67-11.29q0-6.66-4.77-9.86c-3.19-2.1-7.88-3.66-14.11-4.69s-15.91-2.06-29.14-3.18q-20.62-1.82-33.19-5t-19.47-9.63q-6.9-6.44-6.9-17.49,0-17,15.23-25.31t46.14-8.33a237.28,237.28,0,0,1,29.82,1.66,251.33,251.33,0,0,1,27.45,5.16c4.84,1,8.26,1.76,10.3,2.27a73.38,73.38,0,0,0-.76,8.41c-.1,2.77-.1,5.53,0,8.24.09,1.22.2,2.41.28,3.57s.27,2.31.48,3.41a230.17,230.17,0,0,0-32.73-10.6,150.73,150.73,0,0,0-35.76-4.1q-17.25,0-25.21,3.57c-5.32,2.36-7.95,6.14-7.95,11.29a11.53,11.53,0,0,0,4.21,9.38q4.26,3.5,13.35,5.3a216.91,216.91,0,0,0,25.46,3c2.92.21,5.09.4,6.51.61q19.53,1.66,31.88,4.85t19.25,9.78q6.89,6.58,6.88,17.49,0,16.81-15.37,25t-46.27,8.18"/><path class="cls-2" d="M610.25,174.44S780.85,291.13,745,459.08c0,0,6.93-129.42-134.76-284.64"/><path class="cls-3" d="M637.54,237.32s145.67,167.09,72.13,316.51c0,0,28.07-155-72.13-316.51"/><path class="cls-4" d="M646.46,290.79S761.88,507.83,633,648.9c0,0,78.77-158.83,13.45-358.11"/><path class="cls-5" d="M642.36,368.24s61.14,218.89-92.71,317c0,0,108.81-119.56,92.71-317"/><path class="cls-6" d="M595.63,446.56s-17.16,209.9-176.35,253.13c0,0,133.27-79,176.35-253.13"/><path class="cls-7" d="M619.77,406.65s27,214.81-137.74,295.27c0,0,121.7-95,137.74-295.27"/><path class="cls-8" d="M560.17,499.41S479.57,705.89,313.1,710c0,0,150.32-46.93,247.07-210.56"/><path class="cls-9" d="M519.66,532.39s-138.88,202.83-323.6,154c0,0,177.25-3.77,323.6-154"/><path class="cls-10" d="M443.58,575.46S271.29,722.5,116.37,626c0,0,160.47,46.13,327.21-50.58"/><path class="cls-2" d="M978.46,174.44S807.89,291.13,843.7,459.08c0,0-6.92-129.42,134.76-284.64"/><path class="cls-3" d="M951.2,237.32S805.51,404.41,879.05,553.83c0,0-28.06-155,72.15-316.51"/><path class="cls-4" d="M942.25,290.79s-115.42,217,13.45,358.11c0,0-78.77-158.83-13.45-358.11"/><path class="cls-5" d="M946.37,368.24s-61.16,218.89,92.69,317c0,0-108.81-119.56-92.69-317"/><path class="cls-6" d="M993.08,446.56s17.17,209.9,176.36,253.13c0,0-133.28-79-176.36-253.13"/><path class="cls-7" d="M968.94,406.65s-27,214.81,137.74,295.27c0,0-121.68-95-137.74-295.27"/><path class="cls-8" d="M1028.54,499.41s80.6,206.48,247.07,210.56c0,0-150.32-46.93-247.07-210.56"/><path class="cls-9" d="M1069.05,532.39s138.88,202.83,323.61,154c0,0-177.25-3.77-323.61-154"/><path class="cls-10" d="M1145.13,575.46s172.29,147,327.21,50.58c0,0-160.45,46.13-327.21-50.58"/></svg>